HIERARCHY
ROOT Hip
{
	OFFSET	0.00  0.00  0.00 
	CHANNELS 6 Xposition Yposition Zposition Xrotation Zrotation Yrotation
	JOINT Abdomen
	{
		OFFSET	0.039181 5.637571 0.560720
		CHANNELS 3 Xrotation Zrotation Yrotation
		JOINT Chest
		{
			OFFSET	-0.136063 7.190207 -0.124363
			CHANNELS 3 Xrotation Zrotation Yrotation
			JOINT Neck
			{
				OFFSET	0.193764 10.560151 -1.259468
				CHANNELS 3 Xrotation Zrotation Yrotation
				JOINT Head
				{
					OFFSET	-0.096882 0.362727 0.622109
					CHANNELS 3 Xrotation Zrotation Yrotation
					JOINT LeftEye
					{
						OFFSET	1.356350 5.062673 4.221998
						CHANNELS 3 Zrotation Yrotation Xrotation
						End Site
						{
							OFFSET 0.000000 0.000000 0.871939
						}
					}
					JOINT RightEye
					{
						OFFSET	-1.356350 5.062673 4.221998
						CHANNELS 3 Zrotation Yrotation Xrotation
						End Site
						{
							OFFSET 0.000000 0.000000 0.871939
						}
					}
				}
			}
			JOINT RightCollar
			{
				OFFSET	-3.778404 4.940989 0.193764
				CHANNELS 3 Yrotation Zrotation Xrotation
				JOINT RightShoulder
				{
					OFFSET	-2.615818 1.356350 -0.484411
					CHANNELS 3 Zrotation Yrotation Xrotation
					JOINT RightForearm
					{
						OFFSET	-11.432094 0.484410 -1.937643
						CHANNELS 3 Yrotation Zrotation Xrotation
						JOINT RightHand
						{
							OFFSET	-10.657035 -0.096881 0.581293
							CHANNELS 3 Zrotation Yrotation Xrotation
							JOINT RightThumb1
							{
								OFFSET	-0.678175 -0.581297 0.968821
								CHANNELS 3 Zrotation Yrotation Xrotation
								JOINT RightThumb2
								{
									OFFSET	-0.968823 -0.484410 0.484411
									CHANNELS 3 Zrotation Yrotation Xrotation
									JOINT RightThumb3
									{
										OFFSET	-0.929680 -0.497680 0.055639
										CHANNELS 3 Zrotation Yrotation Xrotation
										End Site
										{
											OFFSET -1.097190 -0.513867 -0.001182
										}
									}
								}
							}
							JOINT RightIndex1
							{
								OFFSET	-3.003348 0.581291 1.259468
								CHANNELS 3 Zrotation Yrotation Xrotation
								JOINT RightIndex2
								{
									OFFSET	-1.468153 -0.266718 0.069755
									CHANNELS 3 Zrotation Yrotation Xrotation
									JOINT RightIndex3
									{
										OFFSET	-0.944212 -0.382684 -0.083028
										CHANNELS 3 Zrotation Yrotation Xrotation
										End Site
										{
											OFFSET -0.675657 -0.558718 0.000000
										}
									}
								}
							}
							JOINT RightMid1
							{
								OFFSET	-3.197113 0.581291 0.290646
								CHANNELS 3 Zrotation Yrotation Xrotation
								JOINT RightMid2
								{
									OFFSET	-1.550115 -0.387529 0.000000
									CHANNELS 3 Zrotation Yrotation Xrotation
									JOINT RightMid3
									{
										OFFSET	-0.731071 -0.803926 0.018214
										CHANNELS 3 Zrotation Yrotation Xrotation
										End Site
										{
											OFFSET -0.366992 -0.937043 0.083406
										}
									}
								}
							}
							JOINT RightRing1
							{
								OFFSET	-3.197113 0.387529 -0.678175
								CHANNELS 3 Zrotation Yrotation Xrotation
								JOINT RightRing2
								{
									OFFSET	-1.259466 -0.484410 0.096882
									CHANNELS 3 Zrotation Yrotation Xrotation
									JOINT RightRing3
									{
										OFFSET	-0.551552 -0.801218 0.111221
										CHANNELS 3 Zrotation Yrotation Xrotation
										End Site
										{
											OFFSET -0.245208 -0.810324 0.000000
										}
									}
								}
							}
							JOINT RightPinky1
							{
								OFFSET	-2.809584 -0.096881 -1.453232
								CHANNELS 3 Zrotation Yrotation Xrotation
								JOINT RightPinky2
								{
									OFFSET	-0.984323 -0.316034 0.039140
									CHANNELS 3 Zrotation Yrotation Xrotation
									JOINT RightPinky3
									{
										OFFSET	-0.468908 -0.555906 0.057742
										CHANNELS 3 Zrotation Yrotation Xrotation
										End Site
										{
											OFFSET -0.479664 -0.640198 0.044081
										}
									}
								}
							}
						}
					}
				}
			}
			JOINT LeftCollar
			{
				OFFSET	3.972168 4.940989 0.193764
				CHANNELS 3 Yrotation Zrotation Xrotation
				JOINT LeftShoulder
				{
					OFFSET	2.615818 1.356350 -0.484411
					CHANNELS 3 Zrotation Yrotation Xrotation
					JOINT LeftForearm
					{
						OFFSET	11.432094 0.484410 -1.937643
						CHANNELS 3 Yrotation Zrotation Xrotation
						JOINT LeftHand
						{
							OFFSET	10.657035 -0.096881 0.581293
							CHANNELS 3 Zrotation Yrotation Xrotation
							JOINT LeftThumb1
							{
								OFFSET	0.678175 -0.581297 0.968821
								CHANNELS 3 Zrotation Yrotation Xrotation
								JOINT LeftThumb2
								{
									OFFSET	0.968823 -0.484410 0.484411
									CHANNELS 3 Zrotation Yrotation Xrotation
									JOINT LeftThumb3
									{
										OFFSET	0.929680 -0.497680 0.055639
										CHANNELS 3 Zrotation Yrotation Xrotation
										End Site
										{
											OFFSET 1.097190 -0.513867 -0.001182
										}
									}
								}
							}
							JOINT LeftIndex1
							{
								OFFSET	3.003348 0.581291 1.259468
								CHANNELS 3 Zrotation Yrotation Xrotation
								JOINT LeftIndex2
								{
									OFFSET	1.468153 -0.266718 0.069755
									CHANNELS 3 Zrotation Yrotation Xrotation
									JOINT LeftIndex3
									{
										OFFSET	0.944212 -0.382684 -0.083028
										CHANNELS 3 Zrotation Yrotation Xrotation
										End Site
										{
											OFFSET 0.675657 -0.558718 0.000000
										}
									}
								}
							}
							JOINT LeftMid1
							{
								OFFSET	3.197113 0.581291 0.290646
								CHANNELS 3 Zrotation Yrotation Xrotation
								JOINT LeftMid2
								{
									OFFSET	1.550115 -0.387529 0.000000
									CHANNELS 3 Zrotation Yrotation Xrotation
									JOINT LeftMid3
									{
										OFFSET	0.731071 -0.803926 0.018214
										CHANNELS 3 Zrotation Yrotation Xrotation
										End Site
										{
											OFFSET 0.366992 -0.937043 0.083406
										}
									}
								}
							}
							JOINT LeftRing1
							{
								OFFSET	3.197113 0.387529 -0.678175
								CHANNELS 3 Zrotation Yrotation Xrotation
								JOINT LeftRing2
								{
									OFFSET	1.259466 -0.484410 0.096882
									CHANNELS 3 Zrotation Yrotation Xrotation
									JOINT LeftRing3
									{
										OFFSET	0.551552 -0.801218 0.111221
										CHANNELS 3 Zrotation Yrotation Xrotation
										End Site
										{
											OFFSET 0.245208 -0.810324 0.000000
										}
									}
								}
							}
							JOINT LeftPinky1
							{
								OFFSET	2.809584 -0.096881 -1.453232
								CHANNELS 3 Zrotation Yrotation Xrotation
								JOINT LeftPinky2
								{
									OFFSET	0.984323 -0.316034 0.039140
									CHANNELS 3 Zrotation Yrotation Xrotation
									JOINT LeftPinky3
									{
										OFFSET	0.468908 -0.555906 0.057742
										CHANNELS 3 Zrotation Yrotation Xrotation
										End Site
										{
											OFFSET 0.479664 -0.640198 0.044081
										}
									}
								}
							}
						}
					}
				}
			}
		}
	}
	JOINT RightThigh
	{
		OFFSET	-3.875286 0.717509 0.339475
		CHANNELS 3 Xrotation Zrotation Yrotation
		JOINT RightShin
		{
			OFFSET	-0.434323 -20.673391 0.003424
			CHANNELS 3 Xrotation Zrotation Yrotation
			JOINT RightFoot
			{
				OFFSET	-0.063555 -15.653578 -0.075717
				CHANNELS 3 Xrotation Yrotation Zrotation
				JOINT RightToe
				{
					OFFSET	-0.513669 -2.790361 5.061637
					CHANNELS 3 Xrotation Yrotation Zrotation
					End Site
					{
						OFFSET 0.000000 -0.280183 2.993164
					}
				}
			}
		}
	}
	JOINT LeftThigh
	{
		OFFSET	3.875286 0.717509 0.339475
		CHANNELS 3 Xrotation Zrotation Yrotation
		JOINT LeftShin
		{
			OFFSET	0.434323 -20.673391 0.003424
			CHANNELS 3 Xrotation Zrotation Yrotation
			JOINT LeftFoot
			{
				OFFSET	0.063555 -15.653578 -0.075717
				CHANNELS 3 Xrotation Yrotation Zrotation
				JOINT LeftToe
				{
					OFFSET	0.513669 -2.874842 4.946725
					CHANNELS 3 Xrotation Yrotation Zrotation
					End Site
					{
						OFFSET 0.000000 -0.195702 3.108076
					}
				}
			}
		}
	}
}
MOTION
Frames:     5
Frame Time: 0.033333
-12.248811 43.941101 18.698351 9.165040 4.165100 -40.274502 -4.942690 5.253940 -2.912750 6.749090 8.205260 4.146860 0.000000 0.000000 0.000000 -13.937500 -16.405300 3.994990 0.000000 0.000000 0.000000 0.000000 0.000000 0.000000 -5.724020 -22.959400 0.094351 92.524696 -9.825754 -9.126193 44.470680 -0.090719 -0.385143 -9.904165 -25.321829 -0.959449 -2.196803 8.088476 9.363434 19.143616 8.200828 -17.027071 -0.627714 11.536110 -17.452793 6.289890 1.533570 6.276580 15.344869 9.822695 -5.878980 -20.989811 4.088040 -6.880397 -0.175781 0.000000 0.000000 8.244953 -1.502700 0.722675 -12.838020 -2.429856 5.230082 -0.175781 0.000000 0.000000 -0.156757 -5.465929 4.370303 -17.719269 -3.972915 -0.926374 -0.175781 0.000000 0.000000 7.752715 -4.393883 3.036627 4.441531 -3.901016 1.855662 6.117250 12.320100 -2.201210 -93.227943 3.114068 12.355445 -44.117752 -0.019426 -0.591833 8.178185 25.894850 1.919844 1.301079 -8.886789 9.164861 -1.022189 -8.414251 -17.094839 9.014142 -12.322233 -17.905319 0.000000 0.000000 0.000000 -21.136637 -10.005515 -5.939188 2.854853 -3.570157 -6.428789 -0.175781 0.000000 0.000000 -0.351563 0.000000 0.000000 -21.667566 1.148763 4.187686 -0.175781 0.000000 0.000000 -0.736324 5.381598 4.224761 16.871576 3.912536 -1.093365 -0.175781 0.000000 0.000000 -8.641175 4.276957 2.914167 -5.719903 3.533212 0.809331 -18.917976 -9.230367 -26.529207 44.295643 0.123535 -0.314847 29.460138 -19.795940 1.507868 -0.000457 0.016384 -0.175016 -8.508200 -0.878126 5.511740 10.018648 -0.175645 -0.149491 17.629141 12.059205 -5.374896 0.000000 0.000000 0.000000 
-13.602255 43.650845 20.414909 9.355310 5.203700 -40.439999 -5.117790 5.077440 -3.440630 6.920690 7.853260 3.953540 0.000000 0.000000 0.000000 -14.891600 -16.851601 5.602110 0.000000 0.000000 0.000000 0.000000 0.000000 0.000000 -5.731480 -23.134300 0.078496 93.930481 -10.702398 -9.743256 44.119156 -0.079815 -0.385630 -10.983883 -25.862143 -0.142854 -2.196803 8.088476 9.363434 19.143616 8.200828 -17.027071 -0.627714 11.536110 -17.452793 6.289890 1.533570 6.276580 15.344869 9.822695 -5.878980 -20.989811 4.088040 -6.880397 -0.175781 0.000000 0.000000 8.244953 -1.502700 0.722675 -12.838020 -2.429856 5.230082 -0.175781 0.000000 0.000000 -0.156757 -5.465929 4.370303 -17.719269 -3.972915 -0.926374 -0.175781 0.000000 0.000000 7.752715 -4.393883 3.036627 4.441531 -3.901016 1.855662 5.758270 12.350500 -1.951240 -91.208374 -0.010447 11.288839 -45.173782 -0.151868 -0.476940 8.468182 24.129753 0.115746 1.301079 -8.886789 9.164861 -1.022189 -8.414251 -17.094839 9.014142 -12.322233 -17.905319 0.000000 0.000000 0.000000 -21.136637 -10.005515 -5.939188 2.854853 -3.570157 -6.428789 -0.175781 0.000000 0.000000 -0.351563 0.000000 0.000000 -21.667566 1.148763 4.187686 -0.175781 0.000000 0.000000 -0.736324 5.381598 4.224761 16.871576 3.912536 -1.093365 -0.175781 0.000000 0.000000 -8.641175 4.276957 2.914167 -5.719903 3.533212 0.809331 -22.958170 -8.360452 -27.694439 39.373245 0.000033 -0.517120 22.573629 -14.288844 -0.792559 -0.000457 0.016384 -0.175016 -6.190578 -1.046318 6.079930 10.531376 -0.558751 0.169642 16.416191 11.644515 -5.145254 0.000000 0.000000 0.000000 
-15.017605 43.131508 22.135633 9.378950 6.591200 -40.033600 -5.816430 4.197110 -3.414290 7.266640 7.324180 3.582810 0.000000 0.000000 0.000000 -15.595600 -16.457600 6.243240 0.000000 0.000000 0.000000 0.000000 0.000000 0.000000 -5.724020 -22.959400 0.094351 95.341309 -11.404544 -10.221025 43.591839 -0.079153 -0.380930 -13.301706 -27.007381 1.748663 -2.196803 8.088476 9.363434 19.143616 8.200828 -17.027071 -0.627714 11.536110 -17.452793 6.289890 1.533570 6.276580 15.344869 9.822695 -5.878980 -20.989811 4.088040 -6.880397 -0.175781 0.000000 0.000000 8.244953 -1.502700 0.722675 -12.838020 -2.429856 5.230082 -0.175781 0.000000 0.000000 -0.156757 -5.465929 4.370303 -17.719269 -3.972915 -0.926374 -0.175781 0.000000 0.000000 7.752715 -4.393883 3.036627 4.441531 -3.901016 1.855662 5.590470 12.897900 -1.789100 -89.096619 -3.172901 9.217463 -46.052658 -0.149622 -0.486432 9.563472 23.356562 -1.141436 1.301079 -8.886789 9.164861 -1.022189 -8.414251 -17.094839 9.014142 -12.322233 -17.905319 0.000000 0.000000 0.000000 -21.136637 -10.005515 -5.939188 2.854853 -3.570157 -6.428789 -0.175781 0.000000 0.000000 -0.351563 0.000000 0.000000 -21.667566 1.148763 4.187686 -0.175781 0.000000 0.000000 -0.736324 5.381598 4.224761 16.871576 3.912536 -1.093365 -0.175781 0.000000 0.000000 -8.641175 4.276957 2.914167 -5.719903 3.533212 0.809331 -26.362135 -7.553988 -28.277807 33.398151 0.000178 -0.139320 16.551126 -9.944395 -0.841821 -0.000457 0.016384 -0.175016 -4.251358 -1.547055 6.649577 11.411298 -0.561510 0.168659 14.028264 10.743442 -4.734985 0.000000 0.000000 0.000000 
-16.461924 42.360672 23.842213 9.589890 8.147830 -39.398399 -6.689790 3.142560 -3.004570 7.609650 6.621400 3.357890 0.000000 0.000000 0.000000 -16.073700 -15.570900 6.159730 0.000000 0.000000 0.000000 0.000000 0.000000 0.000000 -5.907260 -22.767900 -0.132864 96.504425 -12.091274 -10.059514 43.240295 -0.078135 -0.377995 -14.645183 -27.962503 2.936623 -2.196803 8.088476 9.363434 19.143616 8.200828 -17.027071 -0.627714 11.536110 -17.452793 6.289890 1.533570 6.276580 15.344869 9.822695 -5.878980 -20.989811 4.088040 -6.880397 -0.175781 0.000000 0.000000 8.244953 -1.502700 0.722675 -12.838020 -2.429856 5.230082 -0.175781 0.000000 0.000000 -0.156757 -5.465929 4.370303 -17.719269 -3.972915 -0.926374 -0.175781 0.000000 0.000000 7.752715 -4.393883 3.036627 4.441531 -3.901016 1.855662 5.414530 13.094500 -1.591100 -87.288177 -5.992034 7.475811 -46.931538 -0.148169 -0.496235 10.418472 22.420853 -1.395273 1.301079 -8.886789 9.164861 -1.022189 -8.414251 -17.094839 9.014142 -12.322233 -17.905319 0.000000 0.000000 0.000000 -21.136637 -10.005515 -5.939188 2.854853 -3.570157 -6.428789 -0.175781 0.000000 0.000000 -0.351563 0.000000 0.000000 -21.667566 1.148763 4.187686 -0.175781 0.000000 0.000000 -0.736324 5.381598 4.224761 16.871576 3.912536 -1.093365 -0.175781 0.000000 0.000000 -8.641175 4.276957 2.914167 -5.719903 3.533212 0.809331 -28.630688 -6.485263 -28.871214 25.487360 0.000339 -0.280624 11.953895 -8.414740 1.040738 -0.000457 0.016384 -0.175016 -1.837079 -2.020377 7.201688 11.763224 -0.562605 0.168253 10.724884 9.643373 -4.336898 0.000000 0.000000 0.000000 
-17.930464 41.545826 25.538038 9.804570 9.529370 -38.784500 -7.738730 1.916000 -2.721110 7.950350 5.745420 3.099710 0.000000 0.000000 0.000000 -16.551701 -14.687200 5.708270 0.000000 0.000000 0.000000 0.000000 0.000000 0.000000 -6.256720 -22.049700 -0.374167 96.590263 -12.635069 -9.166472 42.888744 -0.077200 -0.375031 -14.181705 -28.584007 3.046076 -2.196803 8.088476 9.363434 19.143616 8.200828 -17.027071 -0.627714 11.536110 -17.452793 6.289890 1.533570 6.276580 15.344869 9.822695 -5.878980 -20.989811 4.088040 -6.880397 -0.175781 0.000000 0.000000 8.244953 -1.502700 0.722675 -12.838020 -2.429856 5.230082 -0.175781 0.000000 0.000000 -0.156757 -5.465929 4.370303 -17.719269 -3.972915 -0.926374 -0.175781 0.000000 0.000000 7.752715 -4.393883 3.036627 4.441531 -3.901016 1.855662 5.242110 13.465000 -1.407640 -86.212570 -8.451872 5.480484 -47.810413 -0.146432 -0.505965 10.970626 21.770409 -0.130740 1.301079 -8.886789 9.164861 -1.022189 -8.414251 -17.094839 9.014142 -12.322233 -17.905319 0.000000 0.000000 0.000000 -21.136637 -10.005515 -5.939188 2.854853 -3.570157 -6.428789 -0.175781 0.000000 0.000000 -0.351563 0.000000 0.000000 -21.667566 1.148763 4.187686 -0.175781 0.000000 0.000000 -0.736324 5.381598 4.224761 16.871576 3.912536 -1.093365 -0.175781 0.000000 0.000000 -8.641175 4.276957 2.914167 -5.719903 3.533212 0.809331 -30.213707 -5.783389 -29.462029 16.346804 0.000525 -0.242367 6.937990 -8.999643 3.414400 -0.000457 0.016384 -0.175016 1.379059 -2.566934 6.680417 11.763352 -0.543826 0.345799 7.499725 9.039509 -4.103754 0.000000 0.000000 0.000000 
